<svg t="1695819705506" class="icon" viewBox="0 0 1024 1024" version="1.1" xmlns="http://www.w3.org/2000/svg" p-id="912" width="200" height="200"><path d="M512 947.59c-58.79 0-115.84-11.52-169.56-34.24-51.87-21.94-98.45-53.34-138.45-93.34-40-40-71.4-86.58-93.34-138.45C87.93 627.84 76.41 570.79 76.41 512s11.52-115.84 34.24-169.56c21.94-51.87 53.34-98.45 93.34-138.45s86.58-71.4 138.45-93.34C396.16 87.93 453.21 76.41 512 76.41s115.84 11.52 169.56 34.24c51.87 21.94 98.45 53.34 138.45 93.34 40 40 71.4 86.58 93.34 138.45 22.72 53.72 34.24 110.77 34.24 169.56s-11.52 115.84-34.24 169.56c-21.94 51.87-53.34 98.45-93.34 138.45-40 40-86.58 71.4-138.45 93.34-53.72 22.72-110.77 34.24-169.56 34.24z m0-820c-211.96 0-384.41 172.44-384.41 384.41S300.04 896.41 512 896.41 896.41 723.96 896.41 512 723.96 127.59 512 127.59z" p-id="913"></path><path d="M346.64 321.51c0-32.87 35.59-53.42 64.05-36.98l164.97 95.24 164.97 95.24c28.47 16.44 28.47 57.53 0 73.96l-164.97 95.24-164.97 95.24c-28.47 16.44-64.05-4.11-64.05-36.98V321.51z" p-id="914"></path><path d="M389.34 770.3c-11.63 0-23.25-3.06-33.85-9.18-21.2-12.24-33.85-34.16-33.85-58.63V321.51c0-24.48 12.65-46.39 33.85-58.63 21.2-12.24 46.51-12.24 67.7 0l329.93 190.49c21.2 12.24 33.85 34.16 33.85 58.63 0 24.48-12.66 46.39-33.85 58.63L423.19 761.12c-10.59 6.12-22.22 9.18-33.85 9.18z m0.09-466.55c-4.09 0-7.32 1.5-8.94 2.44-2.66 1.54-8.85 6.11-8.85 15.33V702.5c0 9.22 6.19 13.79 8.85 15.33 2.66 1.54 9.71 4.61 17.7 0l329.93-190.49c7.99-4.61 8.85-12.26 8.85-15.33s-0.86-10.72-8.85-15.33l-329.93-190.5c-3.13-1.81-6.12-2.43-8.76-2.43z" p-id="915"></path></svg>