<svg t="1695819953745" class="icon" viewBox="0 0 1024 1024" version="1.1" xmlns="http://www.w3.org/2000/svg" p-id="1205" width="200" height="200"><path d="M512 947.59c-58.79 0-115.84-11.52-169.56-34.24-51.87-21.94-98.45-53.34-138.45-93.34-40-40-71.4-86.58-93.34-138.45C87.93 627.84 76.41 570.79 76.41 512s11.52-115.84 34.24-169.56c21.94-51.87 53.34-98.45 93.34-138.45s86.58-71.4 138.45-93.34C396.16 87.93 453.21 76.41 512 76.41s115.84 11.52 169.56 34.24c51.87 21.94 98.45 53.34 138.45 93.34 40 40 71.4 86.58 93.34 138.45 22.72 53.72 34.24 110.77 34.24 169.56s-11.52 115.84-34.24 169.56c-21.94 51.87-53.34 98.45-93.34 138.45-40 40-86.58 71.4-138.45 93.34-53.72 22.72-110.77 34.24-169.56 34.24z m0-820c-211.96 0-384.41 172.44-384.41 384.41S300.04 896.41 512 896.41 896.41 723.96 896.41 512 723.96 127.59 512 127.59z" p-id="1206"></path><path d="M375.45 764.23c-27.15 0-49.16-22.01-49.16-49.16v-400c0-27.15 22.01-49.16 49.16-49.16s49.16 22.01 49.16 49.16v400c0 27.15-22.01 49.16-49.16 49.16zM648.55 758.1c-27.15 0-49.16-22.01-49.16-49.16v-400c0-27.15 22.01-49.16 49.16-49.16s49.16 22.01 49.16 49.16v400c0.01 27.15-22 49.16-49.16 49.16z" p-id="1207"></path></svg>